<svg width="32" height="32" viewBox="0 0 32 32" fill="none" xmlns="http://www.w3.org/2000/svg">
<path d="M5 28.5C7 24 9.5 20.5 13 17.5" stroke="#44911B" stroke-width="1.8" stroke-linecap="round"/>
<path d="M6.8 26.3C4.6 18.2 8.1 9.6 15.4 5.4C19.6 3 24.7 2.6 29.3 3.6C30 8.4 29.3 13.5 26.7 17.8C22.5 24.8 14.4 28.5 6.8 26.3Z" fill="#86D72F"/>
<path d="M8.5 24.5C13 18.5 19 11.5 27 5.5" stroke="#44911B" stroke-width="1.1" stroke-linecap="round"/>
<circle cx="13.5" cy="13.8" r="2.3" fill="#A56953"/><circle cx="13.5" cy="13.8" r="1.1" fill="#6D4534"/>
<circle cx="22" cy="10" r="2.6" fill="#A56953"/><circle cx="22" cy="10" r="1.2" fill="#6D4534"/>
<circle cx="19.5" cy="18.8" r="1.9" fill="#A56953"/><circle cx="19.5" cy="18.8" r="0.9" fill="#6D4534"/>
<circle cx="11.5" cy="21.3" r="1.5" fill="#A56953"/>
<circle cx="25.5" cy="14.5" r="1.3" fill="#A56953"/>
</svg>
